<svg xmlns="http://www.w3.org/2000/svg" xmlns:xlink="http://www.w3.org/1999/xlink" width="59.393" height="71.247" viewBox="0 0 59.393 71.247"><defs><style>.a{fill:#a1c9dc;}.b{fill:#3a4977;opacity:0.85;}.c{filter:url(#c);}.d{filter:url(#a);}</style><filter id="a" x="8.334" y="12.989" width="51.059" height="58.258" filterUnits="userSpaceOnUse"><feOffset dy="3" input="SourceAlpha"/><feGaussianBlur stdDeviation="3" result="b"/><feFlood flood-opacity="0.161"/><feComposite operator="in" in2="b"/><feComposite in="SourceGraphic"/></filter><filter id="c" x="0" y="0" width="57.644" height="65.328" filterUnits="userSpaceOnUse"><feOffset dy="3" input="SourceAlpha"/><feGaussianBlur stdDeviation="3" result="d"/><feFlood flood-opacity="0.161"/><feComposite operator="in" in2="d"/><feComposite in="SourceGraphic"/></filter></defs><g transform="translate(-767.385 -204.155)"><g class="d" transform="matrix(1, 0, 0, 1, 767.39, 204.16)"><path class="a" d="M737.354,406.914c-1.32,1.339-6.341,40.02-6.341,40.02s5.827.155,9.079,0c.907-.043,1.74.085,2.027-.342a4.525,4.525,0,0,0,.47-1.744s1.875-10.148,2.38-12.429c.235-.323,8.169.881,14.045-3.053,6.062-5.195,6.342-16.968,2.6-19.58S739.127,406.349,737.354,406.914Z" transform="translate(-713.68 -387.76)"/></g><g class="c" transform="matrix(1, 0, 0, 1, 767.39, 204.16)"><path class="b" d="M738.776,408.812c-.836,1-7.659,44.108-7.942,46.229.425,1.708,6.842.623,10.821.433,1.11-.053,1.26-.159,1.441-.7a6.692,6.692,0,0,0,.4-1.525s2.035-13.139,2.652-15.929c2.78-.087,11.736,1.455,17.049-2.17,7.618-4.4,9.922-14.528,3.688-20.99S740.614,408.63,738.776,408.812Z" transform="translate(-721.83 -402.66)"/></g></g></svg>