<svg xmlns="http://www.w3.org/2000/svg" xmlns:xlink="http://www.w3.org/1999/xlink" width="81.312" height="81.312" viewBox="0 0 81.312 81.312"><defs><style>.a{fill:#495c85;}.b,.e{fill:#fff;}.c{fill:#ffc400;}.d,.e{stroke:none;}.f{filter:url(#a);}</style><filter id="a" x="0" y="0" width="81.312" height="81.312" filterUnits="userSpaceOnUse"><feOffset dy="3" input="SourceAlpha"/><feGaussianBlur stdDeviation="3" result="b"/><feFlood flood-opacity="0.161"/><feComposite operator="in" in2="b"/><feComposite in="SourceGraphic"/></filter></defs><g transform="translate(-58.917 -135.465) rotate(-11)"><g class="f" transform="matrix(0.98, 0.19, -0.19, 0.98, 31.99, 144.22)"><g class="a" transform="translate(9 16.3) rotate(-11)"><path class="d" d="M 27 52.5 C 23.55685997009277 52.5 20.21751022338867 51.82598876953125 17.07471084594727 50.49670028686523 C 14.03837013244629 49.21244049072266 11.3111400604248 47.37358093261719 8.968779563903809 45.03121948242188 C 6.626420021057129 42.68886184692383 4.787559986114502 39.96163177490234 3.503299951553345 36.92528915405273 C 2.174010038375854 33.78248977661133 1.5 30.44314002990723 1.5 27 C 1.5 23.55685997009277 2.174010038375854 20.21751022338867 3.503299951553345 17.07471084594727 C 4.787559986114502 14.03837013244629 6.626420021057129 11.3111400604248 8.968779563903809 8.968779563903809 C 11.3111400604248 6.626420021057129 14.03837013244629 4.787559986114502 17.07471084594727 3.503299951553345 C 20.21751022338867 2.174010038375854 23.55685997009277 1.5 27 1.5 C 30.44314002990723 1.5 33.78248977661133 2.174010038375854 36.92528915405273 3.503299951553345 C 39.96163177490234 4.787559986114502 42.68886184692383 6.626420021057129 45.03121948242188 8.968779563903809 C 47.37358093261719 11.3111400604248 49.21244049072266 14.03837013244629 50.49670028686523 17.07471084594727 C 51.82598876953125 20.21751022338867 52.5 23.55685997009277 52.5 27 C 52.5 30.44314002990723 51.82598876953125 33.78248977661133 50.49670028686523 36.92528915405273 C 49.21244049072266 39.96163177490234 47.37358093261719 42.68886184692383 45.03121948242188 45.03121948242188 C 42.68886184692383 47.37358093261719 39.96163177490234 49.21244049072266 36.92528915405273 50.49670028686523 C 33.78248977661133 51.82598876953125 30.44314002990723 52.5 27 52.5 Z"/><path class="e" d="M 27 3 C 23.75869941711426 3 20.61594009399414 3.634140014648438 17.65903854370117 4.884811401367188 C 14.80149078369141 6.093448638916016 12.23451995849609 7.824348449707031 10.02944183349609 10.02944183349609 C 7.824348449707031 12.23451995849609 6.093448638916016 14.80149078369141 4.884811401367188 17.65903854370117 C 3.634140014648438 20.61594009399414 3 23.75869941711426 3 27 C 3 30.24130058288574 3.634140014648438 33.38405990600586 4.884811401367188 36.34095764160156 C 6.093448638916016 39.19850921630859 7.824348449707031 41.76548004150391 10.02944183349609 43.97055816650391 C 12.23451995849609 46.17565155029297 14.80149078369141 47.90655136108398 17.65903854370117 49.11518859863281 C 20.61594009399414 50.36585998535156 23.75869941711426 51 27 51 C 30.24130058288574 51 33.38405990600586 50.36585998535156 36.34095764160156 49.11518859863281 C 39.19850921630859 47.90655136108398 41.76548004150391 46.17565155029297 43.97055816650391 43.97055816650391 C 46.17565155029297 41.76548004150391 47.90655136108398 39.19850921630859 49.11518859863281 36.34095764160156 C 50.36585998535156 33.38405990600586 51 30.24130058288574 51 27 C 51 23.75869941711426 50.36585998535156 20.61594009399414 49.11518859863281 17.65903854370117 C 47.90655136108398 14.80149078369141 46.17565155029297 12.23451995849609 43.97055816650391 10.02944183349609 C 41.76548004150391 7.824348449707031 39.19850921630859 6.093448638916016 36.34095764160156 4.884811401367188 C 33.38405990600586 3.634140014648438 30.24130058288574 3 27 3 M 27 0 C 41.91168975830078 0 54 12.08831024169922 54 27 C 54 41.91168975830078 41.91168975830078 54 27 54 C 12.08831024169922 54 0 41.91168975830078 0 27 C 0 12.08831024169922 12.08831024169922 0 27 0 Z"/></g></g><path class="b" d="M194.459,235.278s-.13,3.881-.17,5.2a16.1,16.1,0,0,0-5.064-1.9l-.789,7.29s8.755,2.766,8.109,8.923-8.293,7.349-8.293,7.349h-2.979s-6.455-.944-7.1-1.44-.2-5.909-.2-5.909,6.989,2.937,7.195,2.364-.169-6.9-.169-6.9-8.944-2.01-7.523-10.463c1.879-5.779,6.77-5.776,6.77-5.776l-.59-3.99,6.521.142s-.514,3.219-.488,3.724A6.838,6.838,0,0,1,194.459,235.278Z" transform="translate(-121.915 -59.353)"/><path class="c" d="M182.239,244.4v-5.81s2.547.983,2.84,2.952a2.077,2.077,0,0,1-.77,2.089A6.417,6.417,0,0,1,182.239,244.4Z" transform="translate(-95.149 -61.633) rotate(5)"/><path class="c" d="M184.718,238.622l.346,5.7s-2.532-.9-2.8-2.869a2.215,2.215,0,0,1,.69-2.093A4.911,4.911,0,0,1,184.718,238.622Z" transform="translate(-121.915 -59.362)"/><circle class="b" cx="2.5" cy="2.5" r="2.5" transform="translate(62.063 204.366)"/></g></svg>