<svg xmlns="http://www.w3.org/2000/svg" width="34.882" height="21.317" viewBox="0 0 34.882 21.317"><defs><style>.a{fill:#ed1b2e;}.b{fill:#fbb230;}.c{fill:#fff;}</style></defs><g transform="translate(0)"><circle class="a" cx="10.658" cy="10.658" r="10.658"/><circle class="b" cx="10.658" cy="10.658" r="10.658" transform="translate(13.565)"/><g transform="translate(2.244 8.539)"><path class="c" d="M289.836,231.1l-.7,4.339h.974l.417-3.282.167,3.282h1.2l1.307-3.282-.64,3.282h1.057l.723-4.339h-1.78l-1,2.587V231.1Z" transform="translate(-289.14 -230.948)"/><path class="c" d="M308.53,234.176l-.185.73a13.036,13.036,0,0,1,1.433-.109c.43.018.2.547.2.547s-1.749-.233-2.11.824.241,1.474.874,1.494a2.146,2.146,0,0,0,1.034-.2v.263h.9a13.525,13.525,0,0,0,.214-3.11C310.618,233.763,308.53,234.176,308.53,234.176Z" transform="translate(-302.88 -233.144)"/><path class="c" d="M308.53,234.176l-.185.73a13.036,13.036,0,0,1,1.433-.109c.43.018.2.547.2.547s-1.749-.233-2.11.824.241,1.474.874,1.494a2.146,2.146,0,0,0,1.034-.2v.263h.9a13.525,13.525,0,0,0,.214-3.11C310.618,233.763,308.53,234.176,308.53,234.176Z" transform="translate(-286.365 -233.144)"/><path class="a" d="M312.459,241.239a1.805,1.805,0,0,0-1.007.174c-.313.241-.432.6-.247.79a.844.844,0,0,0,.986-.047C312.5,241.916,312.459,241.239,312.459,241.239Z" transform="translate(-305.35 -238.493)"/><path class="b" d="M312.459,241.239a1.805,1.805,0,0,0-1.007.174c-.313.241-.432.6-.247.79a.844.844,0,0,0,.986-.047C312.5,241.916,312.459,241.239,312.459,241.239Z" transform="translate(-288.835 -238.493)"/><path class="c" d="M322.884,233.829l-.139.776s-1.238-.329-1.317.253,1.152.089,1.2,1.494-2.621.937-2.621.937l.152-.8s1.393.418,1.469-.139-1.253-.468-1.253-1.266.367-1.228.912-1.317A7.329,7.329,0,0,1,322.884,233.829Z" transform="translate(-311.917 -232.897)"/><path class="c" d="M332.665,231.719a5.027,5.027,0,0,1,.114-.719h-.886s-.76,3.811-.367,4.254,1.317.089,1.317.089l.063-.76s-.582.165-.62,0,.266-2.1.266-2.1h.608l.1-.763Z" transform="translate(-320.331 -230.874)"/><path class="c" d="M338.727,235.835h2.19a2.382,2.382,0,0,0-.177-1.532c-.38-.532-.633-.633-1.405-.582a1.749,1.749,0,0,0-1.519,1.253c-.177.608.025,2.013,1.076,2.292a2.705,2.705,0,0,0,1.785-.089v-.747s-1.19.266-1.6,0A.647.647,0,0,1,338.727,235.835Z" transform="translate(-325.013 -232.873)"/><path class="b" d="M341.817,237.348h1.291s.026-.666-.611-.65A.7.7,0,0,0,341.817,237.348Z" transform="translate(-328.04 -235.079)"/><path class="c" d="M350.233,234.05l-.57,3.623h.984a8.232,8.232,0,0,1,.458-2.376,1.449,1.449,0,0,1,.721-.419c0-.039.477-.828.477-.828h-.672a5.1,5.1,0,0,0-.526.467v-.467Z" transform="translate(-333.797 -233.125)"/><path class="c" d="M349.746,234.05l-.621,3.623h.941a9.851,9.851,0,0,1,.641-2.376,1.449,1.449,0,0,1,.721-.419c0-.039.477-.828.477-.828h-.672a5.1,5.1,0,0,0-.526.467v-.467Z" transform="translate(-324.487 -233.125)"/><path class="c" d="M361.981,230.706l-.078.915s-1.052-.594-1.724,0a1.692,1.692,0,0,0-.448,2.113c.38.623,1.714.253,1.714.253l-.175.964a2.565,2.565,0,0,1-2.123-.312,2.325,2.325,0,0,1-.351-2.688,2.131,2.131,0,0,1,1.665-1.4A3.587,3.587,0,0,1,361.981,230.706Z" transform="translate(-340.34 -230.521)"/><path class="c" d="M394.064,232.282a1.4,1.4,0,0,0-1.969.193c-.792,1.07-.578,2.7.235,3.038a1.425,1.425,0,0,0,1.5-.449l-.128.449h.813l.706-4.365h-.877Z" transform="translate(-364.74 -230.984)"/><path class="b" d="M396.149,237.678a.913.913,0,0,0-.749.834c-.086.492.15.9.471.9s.663-.406.749-.9S396.47,237.678,396.149,237.678Z" transform="translate(-367.531 -235.802)"/></g></g></svg>