<svg xmlns="http://www.w3.org/2000/svg" width="35.66" height="11.502" viewBox="0 0 35.66 11.502"><defs><style>.a{fill:#003d9e;}.b{fill:#fff;}.c{fill:#f89c0f;}</style></defs><path class="a" d="M227.05,118.394l5.192.7.808,7.209,4.121-6.73s.383-.479,0-.8a2.144,2.144,0,0,0-.575-.383h3.866L233.5,129.127h-3.131l-.4-8.985a11.574,11.574,0,0,0-1.164-.869A10.687,10.687,0,0,0,227.05,118.394Z" transform="translate(-227.014 -117.821)"/><path class="a" d="M252.334,118.342a2.156,2.156,0,0,1,.166,1.629c-.249,1-2.658,8.181-2.658,8.181a7.2,7.2,0,0,1-.485.88c2.8.019,3.61,0,3.61,0a3.792,3.792,0,0,0-.029-1.008,31.91,31.91,0,0,1,.86-3.4c1.021-3.592,1.645-5.236,1.645-5.236a3.5,3.5,0,0,1,.756-1.05C254.688,118.229,252.334,118.342,252.334,118.342Z" transform="translate(-238.282 -117.769)"/><path class="a" d="M269.808,120.2l.438-2.008a5.665,5.665,0,0,0-1.62-.762,7.544,7.544,0,0,0-1.944-.2s-3.583-.133-4.254,2.966c-.415,3.674,4.931,3.8,3.961,6.045-.962,1.756-5.214-.777-5.214-.777v2.061a13.68,13.68,0,0,0,4.384,1.2,3.958,3.958,0,0,0,3.652-2.364,2.566,2.566,0,0,0-.585-3.035c-1.022-1.118-5.312-3.059-2.236-4.136A4.668,4.668,0,0,1,269.808,120.2Z" transform="translate(-243.997 -117.236)"/><path class="a" d="M282.864,118.292h3.588l.909,9.949.565.737H283.9l.494-.476-.145-2.559-3-.061-1.278,2.826.393.393H277.04l.541-.393L283.011,119Z" transform="translate(-252.266 -117.769)"/><path class="b" d="M288.792,124.085l-1.771,3.371h2.149Z" transform="translate(-257.308 -120.696)"/><path class="c" d="M181.031,131.8c4.867,2.279,5.8,7.236,5.915,6.758-.119-2.569-.03-5.169-.508-6.125S182.859,131.8,181.031,131.8Z" transform="translate(-181.031 -131.245)"/></svg>