<svg xmlns="http://www.w3.org/2000/svg" width="23" height="23" viewBox="0 0 23 23"><defs><style>.a{fill:#fcfcfc;}.b,.d{fill:#ccc;}.b{font-size:16px;font-family:Roboto-Bold, Roboto;font-weight:700;}.c,.d{stroke:none;}</style></defs><g transform="translate(-189 -270)"><g class="a" transform="translate(189 270)"><path class="c" d="M 11.5 22 C 5.710279941558838 22 1 17.28972053527832 1 11.5 C 1 5.710279941558838 5.710279941558838 1 11.5 1 C 17.28972053527832 1 22 5.710279941558838 22 11.5 C 22 17.28972053527832 17.28972053527832 22 11.5 22 Z"/><path class="d" d="M 11.5 2 C 6.261680603027344 2 2 6.261680603027344 2 11.5 C 2 16.73831939697266 6.261680603027344 21 11.5 21 C 16.73831939697266 21 21 16.73831939697266 21 11.5 C 21 6.261680603027344 16.73831939697266 2 11.5 2 M 11.5 0 C 17.85127067565918 0 23 5.14872932434082 23 11.5 C 23 17.85127067565918 17.85127067565918 23 11.5 23 C 5.14872932434082 23 0 17.85127067565918 0 11.5 C 0 5.14872932434082 5.14872932434082 0 11.5 0 Z"/></g><text class="b" transform="translate(196 287)"><tspan x="0" y="0">2</tspan></text></g></svg>